<svg xmlns="http://www.w3.org/2000/svg" width="72" height="72" viewBox="0 0 72 72" fill="none">
  <g clip-path="url(#clip0_1_2)">
    <mask id="mask0_1_2" style="mask-type:luminance" maskUnits="userSpaceOnUse" x="0" y="0" width="72" height="72">
      <path d="M60 0H12C5.37258 0 0 5.37258 0 12V60C0 66.6274 5.37258 72 12 72H60C66.6274 72 72 66.6274 72 60V12C72 5.37258 66.6274 0 60 0Z" fill="white" />
    </mask>
    <g mask="url(#mask0_1_2)">
      <path d="M72 0H0V72H72V0Z" fill="#121315" />
      <path fill-rule="evenodd" clip-rule="evenodd" d="M25.0313 56.2709C26.5978 56.8846 28.5638 57.1915 30.929 57.1915C33.4786 57.1915 35.6441 56.7773 37.4256 55.9486C39.2071 55.1198 40.5742 53.9074 41.5262 52.3114C42.4786 50.7154 42.9547 48.751 42.9547 46.4184V24.2734C42.9547 23.9665 42.8318 23.7056 42.5861 23.4907C42.371 23.2452 42.0946 23.1224 41.7566 23.1224H36.4579C36.12 23.1224 35.8438 23.2452 35.6287 23.4907C35.4137 23.7056 35.3062 23.9665 35.3062 24.2734V25.9769C34.5382 25.0253 33.5551 24.2426 32.3573 23.6288C31.1899 22.9843 29.777 22.662 28.1184 22.662C26.5517 22.662 25.1695 22.9229 23.9716 23.4447C22.7736 23.9358 21.7599 24.6571 20.9306 25.6085C20.1319 26.5601 19.5176 27.6958 19.0876 29.0155C18.6575 30.3353 18.3964 31.8238 18.3043 33.4812C18.2736 34.2792 18.2736 35.0772 18.3043 35.8752C18.3964 37.5941 18.6575 39.1135 19.0876 40.4333C19.5483 41.753 20.178 42.8734 20.9766 43.794C21.7753 44.7149 22.7736 45.4054 23.9716 45.8659C25.1695 46.3262 26.5517 46.5564 28.1184 46.5564C29.6849 46.5564 31.0212 46.3262 32.1269 45.8659C33.2328 45.3749 34.1388 44.7456 34.8454 43.9783V47.0628C34.8454 48.1678 34.6918 49.0426 34.3846 49.6872C34.0774 50.3623 33.6166 50.8382 33.0024 51.1145C32.388 51.4212 31.62 51.5748 30.6986 51.5748C29.8692 51.5748 29.2087 51.4519 28.7174 51.2064C28.2566 50.9916 27.888 50.7 27.6115 50.3316C27.3658 49.9634 27.1661 49.6104 27.0125 49.2727C26.8896 48.935 26.7206 48.6895 26.5056 48.5362C26.3215 48.4133 26.0911 48.3521 25.8146 48.3521H19.963C19.6251 48.3521 19.3333 48.4594 19.0876 48.6742C18.8418 48.8892 18.7343 49.1654 18.765 49.5029C18.7958 49.9942 19.0108 50.6539 19.4101 51.4826C19.8094 52.3421 20.4545 53.2015 21.3453 54.061C22.2668 54.9204 23.4954 55.657 25.0313 56.2709ZM33.0024 39.9269C32.388 40.3565 31.5893 40.5713 30.6065 40.5713C29.5927 40.5713 28.7786 40.3565 28.1645 39.9269C27.5808 39.497 27.1507 38.9138 26.8742 38.1773C26.6285 37.4407 26.4749 36.6274 26.4134 35.7372C26.3827 35.0314 26.3827 34.3406 26.4134 33.6655C26.4749 32.7754 26.6285 31.962 26.8742 31.2254C27.1507 30.4886 27.5808 29.9054 28.1645 29.4758C28.7786 29.0462 29.5927 28.8312 30.6065 28.8312C31.5893 28.8312 32.388 29.0462 33.0024 29.4758C33.6166 29.875 34.062 30.4121 34.3385 31.0872C34.6457 31.7626 34.8146 32.4991 34.8454 33.2971C34.8761 33.6041 34.8914 34.0644 34.8914 34.6783C34.8914 35.2922 34.8761 35.7679 34.8454 36.1056C34.8146 36.8729 34.6457 37.5941 34.3385 38.2694C34.062 38.9446 33.6166 39.497 33.0024 39.9269Z" fill="white" />
      <path d="M47.6892 13.9387H43.6219V11.6367H54.0588V13.9387H49.9913V58.0613H54.0588V60.3634H43.6219V58.0613H47.6892V13.9387Z" fill="#E9EBEF" />
    </g>
  </g>
  <defs>
    <clipPath id="clip0_1_2">
      <rect width="72" height="72" fill="white" />
    </clipPath>
  </defs>
</svg>