<svg xmlns="http://www.w3.org/2000/svg" viewBox="0 0 195 69"><path fill="#dee6e8" d="M0 0h9.816v9.816H0zm0 11.837h9.816v10.104H0zm0 24.539h9.816v9.816H0z"/><path fill="#99d2e8" d="M23.962 35.799h9.816v10.104h-9.816z"/><path fill="#dee6e8" d="M23.962 47.924h9.816v9.816h-9.816zm11.837 10.104h10.104v10.104H35.799zm12.125 0h9.816v10.104h-9.816zM23.962 23.962h9.816v9.816h-9.816zm23.962 0h9.816v9.816h-9.816z"/><path fill="#33a5d1" d="M160.805 23.962h9.816v9.816h-9.816z"/><path fill="#dee6e8" d="M172.641 35.799h10.104v10.104h-10.104z"/><path fill="#99d2e8" d="M59.76 23.962h10.104v9.816H59.76zm112.881 0h10.104v9.816h-10.104z"/><path fill="#dee6e8" d="M184.767 35.799h9.816v10.104h-9.816zm0-23.962h9.816v10.104h-9.816z"/><path fill="#fdba14" d="M11.837 11.837h10.104v10.104H11.837z"/><path d="M35.885 56.008V21.767H23.962v-9.93h34.066v9.93H45.762v34.241zM21.941 23.962v32.045H11.837V23.962z" fill="#004863"/><path d="M66.386 52.048h-9.6V37.396h9.6v1.626H58.61v4.723h7.622v1.625H58.61v5.053h7.776zm14.784 0h-2.2l-4.675-6.239-4.68 6.239h-2.218l5.711-7.513-5.381-7.139h2.218l4.349 5.865 4.326-5.865h2.22l-5.36 7.117zm3.382 0h-1.82V37.396h5.887a4.455 4.455 0 013.358 1.274 4.347 4.347 0 011.23 3.141 4.324 4.324 0 01-1.241 3.141 4.459 4.459 0 01-3.35 1.274h-4.064zm3.845-7.447a2.915 2.915 0 002.108-.78 2.662 2.662 0 00.813-2.01 2.662 2.662 0 00-.813-2.01 2.919 2.919 0 00-2.108-.78h-3.845v5.58zm16.386 7.447h-9.6V37.396h9.6v1.626h-7.776v4.723h7.622v1.625h-7.622v5.053h7.776zm13.091 0h-2.152l-3.734-5.821h-2.922v5.821h-1.823V37.396h5.887a4.62 4.62 0 013.317 1.208 4.212 4.212 0 011.274 3.207 4.032 4.032 0 01-3.799 4.259zm-4.962-7.425a2.9 2.9 0 002.108-.791 2.7 2.7 0 00.814-2.021 2.662 2.662 0 00-.814-2.01 2.921 2.921 0 00-2.108-.78h-3.846v5.6zm12.695 7.425h-1.824V39.022h-4.634v-1.626h11.115v1.626h-4.657zm8.457 0h-1.823V37.396h1.823zm7.732.263a7.134 7.134 0 01-5.622-2.328l1.077-1.384a5.943 5.943 0 004.612 2.087 3.806 3.806 0 002.614-.758 2.319 2.319 0 00.835-1.768 1.85 1.85 0 00-.482-1.3 3.279 3.279 0 00-1.242-.824 14.857 14.857 0 00-1.691-.538q-.933-.241-1.856-.538a9.513 9.513 0 01-1.68-.714 3.324 3.324 0 01-1.727-3.006 3.569 3.569 0 011.428-2.933 5.618 5.618 0 013.6-1.131 6.826 6.826 0 015.209 2.043l-1.1 1.34a5.461 5.461 0 00-4.24-1.757 3.452 3.452 0 00-2.163.648 2.019 2.019 0 00-.847 1.68 1.554 1.554 0 00.648 1.274 4.267 4.267 0 001.6.747q.956.243 2.088.6t2.094.773a3.776 3.776 0 011.6 1.307 3.625 3.625 0 01.648 2.175 4.041 4.041 0 01-1.328 3.053 5.767 5.767 0 01-4.075 1.252zm17.287-.263h-9.6V37.396h9.6v1.626h-7.775v4.723h7.622v1.625h-7.622v5.053h7.775z" fill="#2677ad"/></svg>