<?xml version="1.0" encoding="UTF-8"?>
<svg xmlns="http://www.w3.org/2000/svg" viewBox="105 100 166 106">
  <path d="M163.03,174.39c-11.6,0-21.04,9.34-21.04,20.8v4.88h10.64v-4.88c0-5.67,4.66-10.28,10.4-10.28s10.4,4.61,10.4,10.28v4.88h10.64v-4.88c0-11.46-9.44-20.8-21.04-20.8Z" style="fill: #142d99;"/>
  <path d="M158.52,132.85v-10.52h-4.84c-23.52,0-42.67,18.94-42.67,42.22v35.51h10.64v-35.51c0-17.46,14.37-31.7,32.07-31.7h4.84-.03Z" style="fill: #142d99;"/>
  <path d="M224.59,148.68c-10.13,5.41-20.59,10.99-20.59,28.99v22.37h10.64v-22.37c0-11.7,5.65-14.71,15-19.74,2.27-1.21,4.6-2.45,7.02-3.93l-5.56-8.95c-2.18,1.33-4.36,2.48-6.51,3.63Z" style="fill: #142d99;"/>
  <path d="M252.71,115.86c-1.67,6.77-7.8,11.49-14.91,11.49h-.24c-4.72.06-8.49-2.63-13.3-6.03-5.95-4.2-13.33-9.4-24.21-9.4h-31.98v24.91c0,13.24,10.88,23.99,24.27,23.99h3.71v-10.52h-3.71c-7.5,0-13.63-6.06-13.63-13.47v-14.39h21.37c7.47,0,12.61,3.6,18.02,7.45,5.62,3.96,11.45,8.07,19.54,7.98h.18c12.01,0,22.38-8.04,25.22-19.53.9-3.58,1.52-7.3,1.82-10.78l-10.61-.92c-.27,2.98-.81,6.15-1.55,9.22Z" style="fill: #142d99;"/>
</svg>
