<svg width="20" height="20" viewBox="0 0 20 20" fill="none" xmlns="http://www.w3.org/2000/svg">
<path d="M3.81388 14.261V9.11521L10.0084 2.92066L16.203 9.11521V14.261H18.2642V8.25941L10.0084 0L1.74902 8.25941V14.261H3.81388Z" fill="#004DF2"/>
<path d="M14.1634 16.282L12.572 17.8734H7.4408L5.84937 16.282H2.92871L6.58499 19.9383H13.4278L17.0841 16.282H14.1634Z" fill="#004DF2"/>
<path d="M10.0081 7.50928L6.39551 9.59598V13.7694L10.0081 15.8561L13.6207 13.7694V9.59598L10.0081 7.50928ZM11.869 11.679C11.869 12.5785 11.1407 13.3069 10.2412 13.3069H8.61331V10.0512H10.2412C11.1407 10.0512 11.869 10.7795 11.869 11.679Z" fill="black"/>
</svg>
