<svg width="80" height="80" viewBox="0 0 80 80" fill="none"
    xmlns="http://www.w3.org/2000/svg">
    <g clip-path="url(#clip0_2017_229)" transform="translate(1 1)">
        <path fill-rule="evenodd" clip-rule="evenodd" d="M32.2518 0.627201C1.47984 6.22174 -10.7777 44.379 11.0888 66.507C30.9077 86.5626 64.245 80.0157 75.0055 53.9547C86.6058 25.86 62.0348 -4.78765 32.2518 0.627201ZM39.4381 23.093C42.4235 23.6617 45.3346 24.7027 47.1424 25.8485C47.8431 26.2924 49.6856 27.2052 51.2374 27.8768C57.1376 30.4307 61.8266 34.3729 63.9812 38.5911L65.0569 40.6967L63.9731 42.8024C57.2069 55.9502 38.5026 58.303 26.7894 47.4792L25.4974 46.2853L23.1779 48.4918C16.9866 54.3802 13.0115 56.7501 13.0115 54.5527C13.0115 53.215 14.2193 48.8923 15.7393 44.7889L17.1739 40.917L16.4795 39.0131C13.3176 30.3434 12.3506 26.035 13.5668 26.035C14.5424 26.035 18.3991 28.7783 22.082 32.0922C25.9632 35.5845 25.4421 35.4182 27.2866 33.7533C28.096 33.0227 29.6545 31.8358 30.7501 31.1155C34.2818 28.7942 33.9894 29.3111 33.2157 26.7544C32.0157 22.7876 33.4385 21.9503 39.4381 23.093ZM51.0745 33.1796C49.3522 33.9392 48.2271 36.1607 48.7538 37.7625C49.8683 41.1528 53.9406 41.6426 55.9224 38.6251C57.7435 35.8518 54.155 31.8211 51.0745 33.1796Z" fill="black"/>
    </g>
    <defs>
        <clipPath id="clip0_2017_229">
            <rect width="77.9386" height="78.2585" fill="white"/>
        </clipPath>
    </defs>
</svg>
