<svg width="800" height="401" viewBox="0 0 800 401" fill="none" xmlns="http://www.w3.org/2000/svg">
<g clip-path="url(#clip0_16_78)">
<path d="M164.985 247.119C160.992 247.119 157.38 244.638 156.049 240.821L128.099 167.72C126.198 162.757 128.67 157.222 133.613 155.314C138.556 153.405 144.07 155.886 145.972 160.849L164.795 210.283L183.618 160.849C184.948 157.031 188.561 154.55 192.554 154.55C196.547 154.55 200.159 157.031 201.49 160.849L220.313 210.283L239.136 160.849C241.037 155.886 246.551 153.405 251.495 155.314C256.438 157.222 258.91 162.757 257.008 167.72L229.439 240.821C228.108 244.638 224.496 247.119 220.503 247.119C216.51 247.119 212.898 244.638 211.567 240.821L192.744 191.387L173.921 240.821C172.4 244.638 168.977 247.119 164.985 247.119Z" fill="#2E3038"/>
<path d="M455.315 173.827H399.797C394.473 173.827 390.1 169.438 390.1 164.093C390.1 158.749 394.473 154.359 399.797 154.359H455.315C460.639 154.359 465.012 158.749 465.012 164.093C465.012 169.438 460.639 173.827 455.315 173.827Z" fill="#2E3038"/>
<path d="M442.006 210.473H399.987C394.663 210.473 390.29 206.083 390.29 200.739C390.29 195.395 394.663 191.005 399.987 191.005H442.006C447.329 191.005 451.702 195.395 451.702 200.739C451.702 206.083 447.329 210.473 442.006 210.473Z" fill="#2E3038"/>
<path d="M455.505 247.119H399.987C394.663 247.119 390.29 242.729 390.29 237.385C390.29 232.041 394.663 227.651 399.987 227.651H455.505C460.829 227.651 465.202 232.041 465.202 237.385C465.202 242.729 460.829 247.119 455.505 247.119Z" fill="#2E3038"/>
<path d="M549.43 173.827H493.912C488.588 173.827 484.215 169.438 484.215 164.093C484.215 158.749 488.588 154.359 493.912 154.359H549.43C554.754 154.359 559.127 158.749 559.127 164.093C559.127 169.438 554.754 173.827 549.43 173.827Z" fill="#2E3038"/>
<path d="M535.931 210.473H493.912C488.588 210.473 484.215 206.083 484.215 200.739C484.215 195.395 488.588 191.005 493.912 191.005H535.931C541.255 191.005 545.628 195.395 545.628 200.739C545.628 206.083 541.255 210.473 535.931 210.473Z" fill="#2E3038"/>
<path d="M549.43 247.119H493.912C488.588 247.119 484.215 242.729 484.215 237.385C484.215 232.041 488.588 227.651 493.912 227.651H549.43C554.754 227.651 559.127 232.041 559.127 237.385C559.127 242.729 554.754 247.119 549.43 247.119Z" fill="#2E3038"/>
<path d="M607.229 247.119C601.906 247.119 597.533 242.729 597.533 237.385V164.284C597.533 158.94 601.906 154.55 607.229 154.55C612.553 154.55 616.926 158.94 616.926 164.284V196.058L617.247 195.742C617.627 195.075 618.091 194.446 618.637 193.869C619.305 193.198 620.043 192.645 620.827 192.209L656.093 157.413C659.896 153.596 665.98 153.787 669.783 157.604C673.585 161.422 673.395 167.529 669.593 171.346L639.689 200.954L669.402 230.323C673.205 234.141 673.205 240.248 669.593 244.065C667.691 246.165 665.22 247.119 662.748 247.119C660.276 247.119 657.804 246.165 655.903 244.257L625.903 214.604L616.926 223.492V237.385C616.926 242.729 612.553 247.119 607.229 247.119Z" fill="#2E3038"/>
<path d="M546.098 271.167H300.829C282.767 271.167 268.127 256.47 268.127 238.338V163.329C267.936 145.197 282.767 130.5 300.829 130.5H546.289C564.351 130.5 578.991 145.197 578.991 163.329V238.338C578.991 256.47 564.161 271.167 546.098 271.167ZM300.829 140.043C288.09 140.043 277.633 150.541 277.633 163.329V238.338C277.633 251.126 288.09 261.624 300.829 261.624H546.289C559.027 261.624 569.485 251.126 569.485 238.338V163.329C569.485 150.541 559.027 140.043 546.289 140.043H300.829Z" fill="#6788F3"/>
<path d="M361.39 227.841H305.871C305.301 227.841 304.731 227.841 303.97 228.031C299.597 228.795 296.175 232.803 296.175 237.574C296.175 242.346 299.597 246.163 303.97 247.118C304.541 247.308 305.111 247.308 305.871 247.308H361.39C366.714 247.308 371.087 242.919 371.087 237.574C371.087 232.04 366.714 227.841 361.39 227.841Z" fill="#6788F3"/>
<path d="M304.16 173.635C304.731 173.826 305.301 173.826 306.062 173.826H361.39C366.714 173.826 371.087 169.436 371.087 164.092C371.087 158.748 366.714 154.358 361.39 154.358H305.871C305.301 154.358 304.731 154.358 303.97 154.549C299.597 155.312 296.175 159.32 296.175 164.092C296.365 168.864 299.597 172.872 304.16 173.635Z" fill="#6788F3"/>
<path d="M304.16 210.281C304.731 210.472 305.301 210.472 306.062 210.472H348.081C353.404 210.472 357.777 206.082 357.777 200.738C357.777 195.394 353.404 191.004 348.081 191.004H305.871C305.301 191.004 304.731 191.004 303.97 191.195C299.597 191.958 296.175 195.966 296.175 200.738C296.365 205.509 299.597 209.518 304.16 210.281Z" fill="#6788F3"/>
</g>
<defs>
<clipPath id="clip0_16_78">
<rect width="545.083" height="140.667" fill="white" transform="translate(127.458 130.5)"/>
</clipPath>
</defs>
</svg>
