<svg viewBox="-0.31 -0.50 21.85 20.98" xmlns="http://www.w3.org/2000/svg">
<path fill-rule="evenodd" clip-rule="evenodd" d="M15.962 0C17.2711 0 18.6787 0.628647 19.6832 1.60409C20.5875 2.48226 21.1689 3.64672 21.0335 4.89899C20.837 6.71646 19.8452 7.51146 18.8108 8.35686C18.018 9.00479 17.1991 9.68017 16.6315 10.791C16.1647 11.7047 15.8968 12.6821 15.6475 13.6598L15.5011 14.236C15.0945 15.8233 14.6428 17.3799 13.2646 18.5908C12.3247 19.4166 11.1087 19.8903 9.87327 19.9831C8.65337 20.0747 7.4132 19.7949 6.39993 19.1089C5.5676 18.5545 4.99886 17.9123 4.65037 17.2341C4.26395 16.482 4.14938 15.6871 4.24056 14.9254C4.34564 14.0475 4.72314 13.2136 5.27301 12.5377C5.82309 11.8616 6.54623 11.3427 7.34517 11.1008C8.98075 10.6058 10.1593 10.0602 10.8292 9.06748C11.4134 8.20169 11.62 6.98848 11.3648 5.13314C11.1346 3.59666 11.3745 2.25543 12.203 1.32977C12.9579 0.48636 14.1944 0 15.962 0Z" fill="#F2732B"/>
<path fill-rule="evenodd" clip-rule="evenodd" d="M2.43142 0.74193C3.50366 0.362717 4.46959 0.510309 5.25528 0.977953C6.17664 1.52635 6.84989 2.50717 7.16666 3.58011C7.4747 4.62351 7.44714 5.75878 6.96495 6.67317C6.55401 7.45245 5.81095 8.06413 4.67757 8.32298C3.63656 8.56073 2.7091 8.35016 1.96109 7.86701C1.10375 7.31325 0.481902 6.40545 0.188461 5.41153C-0.0954551 4.44987 -0.0726736 3.40477 0.353363 2.51967C0.723456 1.75079 1.3989 1.10709 2.43142 0.74193Z" fill="#3380F6"/>
</svg>
