<svg xmlns="http://www.w3.org/2000/svg" viewBox="0 0 370 370" width="370" height="370"><rect width="370" height="370" fill="#f7f5f0"/><g fill="#1a1a1a" shape-rendering="crispEdges"><rect x="120" y="40" width="10" height="10"/><rect x="150" y="40" width="30" height="10"/><rect x="190" y="40" width="10" height="10"/><rect x="220" y="40" width="30" height="10"/><rect x="140" y="50" width="10" height="10"/><rect x="170" y="50" width="10" height="10"/><rect x="190" y="50" width="30" height="10"/><rect x="240" y="50" width="10" height="10"/><rect x="120" y="60" width="20" height="10"/><rect x="150" y="60" width="10" height="10"/><rect x="170" y="60" width="10" height="10"/><rect x="200" y="60" width="10" height="10"/><rect x="220" y="60" width="30" height="10"/><rect x="130" y="70" width="50" height="10"/><rect x="190" y="70" width="30" height="10"/><rect x="230" y="70" width="20" height="10"/><rect x="120" y="80" width="10" height="10"/><rect x="140" y="80" width="10" height="10"/><rect x="170" y="80" width="10" height="10"/><rect x="190" y="80" width="10" height="10"/><rect x="210" y="80" width="40" height="10"/><rect x="130" y="90" width="30" height="10"/><rect x="170" y="90" width="10" height="10"/><rect x="190" y="90" width="10" height="10"/><rect x="210" y="90" width="10" height="10"/><rect x="240" y="90" width="10" height="10"/><rect x="120" y="100" width="10" height="10"/><rect x="140" y="100" width="10" height="10"/><rect x="160" y="100" width="10" height="10"/><rect x="180" y="100" width="10" height="10"/><rect x="200" y="100" width="10" height="10"/><rect x="220" y="100" width="10" height="10"/><rect x="240" y="100" width="10" height="10"/><rect x="120" y="110" width="10" height="10"/><rect x="140" y="110" width="10" height="10"/><rect x="180" y="110" width="50" height="10"/><rect x="90" y="120" width="20" height="10"/><rect x="130" y="120" width="10" height="10"/><rect x="160" y="120" width="10" height="10"/><rect x="190" y="120" width="20" height="10"/><rect x="260" y="120" width="10" height="10"/><rect x="280" y="120" width="10" height="10"/><rect x="300" y="120" width="10" height="10"/><rect x="320" y="120" width="10" height="10"/><rect x="50" y="130" width="10" height="10"/><rect x="90" y="130" width="10" height="10"/><rect x="120" y="130" width="20" height="10"/><rect x="160" y="130" width="20" height="10"/><rect x="190" y="130" width="10" height="10"/><rect x="220" y="130" width="30" height="10"/><rect x="270" y="130" width="20" height="10"/><rect x="300" y="130" width="20" height="10"/><rect x="40" y="140" width="70" height="10"/><rect x="120" y="140" width="40" height="10"/><rect x="170" y="140" width="30" height="10"/><rect x="210" y="140" width="20" height="10"/><rect x="240" y="140" width="70" height="10"/><rect x="50" y="150" width="10" height="10"/><rect x="80" y="150" width="10" height="10"/><rect x="110" y="150" width="10" height="10"/><rect x="150" y="150" width="20" height="10"/><rect x="180" y="150" width="10" height="10"/><rect x="210" y="150" width="10" height="10"/><rect x="240" y="150" width="10" height="10"/><rect x="260" y="150" width="10" height="10"/><rect x="280" y="150" width="20" height="10"/><rect x="60" y="160" width="50" height="10"/><rect x="120" y="160" width="40" height="10"/><rect x="200" y="160" width="20" height="10"/><rect x="230" y="160" width="40" height="10"/><rect x="290" y="160" width="10" height="10"/><rect x="310" y="160" width="10" height="10"/><rect x="40" y="170" width="10" height="10"/><rect x="110" y="170" width="20" height="10"/><rect x="140" y="170" width="30" height="10"/><rect x="190" y="170" width="20" height="10"/><rect x="230" y="170" width="20" height="10"/><rect x="260" y="170" width="10" height="10"/><rect x="280" y="170" width="20" height="10"/><rect x="320" y="170" width="10" height="10"/><rect x="50" y="180" width="10" height="10"/><rect x="70" y="180" width="50" height="10"/><rect x="140" y="180" width="10" height="10"/><rect x="170" y="180" width="20" height="10"/><rect x="200" y="180" width="10" height="10"/><rect x="220" y="180" width="10" height="10"/><rect x="250" y="180" width="10" height="10"/><rect x="270" y="180" width="10" height="10"/><rect x="40" y="190" width="40" height="10"/><rect x="90" y="190" width="10" height="10"/><rect x="130" y="190" width="60" height="10"/><rect x="220" y="190" width="10" height="10"/><rect x="250" y="190" width="10" height="10"/><rect x="280" y="190" width="40" height="10"/><rect x="50" y="200" width="10" height="10"/><rect x="80" y="200" width="50" height="10"/><rect x="150" y="200" width="30" height="10"/><rect x="200" y="200" width="20" height="10"/><rect x="230" y="200" width="30" height="10"/><rect x="270" y="200" width="10" height="10"/><rect x="290" y="200" width="30" height="10"/><rect x="40" y="210" width="10" height="10"/><rect x="60" y="210" width="40" height="10"/><rect x="110" y="210" width="10" height="10"/><rect x="130" y="210" width="40" height="10"/><rect x="200" y="210" width="20" height="10"/><rect x="230" y="210" width="20" height="10"/><rect x="260" y="210" width="10" height="10"/><rect x="280" y="210" width="10" height="10"/><rect x="320" y="210" width="10" height="10"/><rect x="40" y="220" width="70" height="10"/><rect x="120" y="220" width="40" height="10"/><rect x="170" y="220" width="30" height="10"/><rect x="220" y="220" width="30" height="10"/><rect x="280" y="220" width="10" height="10"/><rect x="300" y="220" width="10" height="10"/><rect x="320" y="220" width="10" height="10"/><rect x="40" y="230" width="10" height="10"/><rect x="70" y="230" width="30" height="10"/><rect x="120" y="230" width="10" height="10"/><rect x="180" y="230" width="10" height="10"/><rect x="200" y="230" width="20" height="10"/><rect x="230" y="230" width="10" height="10"/><rect x="250" y="230" width="50" height="10"/><rect x="310" y="230" width="20" height="10"/><rect x="40" y="240" width="10" height="10"/><rect x="60" y="240" width="10" height="10"/><rect x="100" y="240" width="10" height="10"/><rect x="130" y="240" width="20" height="10"/><rect x="160" y="240" width="10" height="10"/><rect x="220" y="240" width="10" height="10"/><rect x="240" y="240" width="70" height="10"/><rect x="120" y="250" width="10" height="10"/><rect x="150" y="250" width="10" height="10"/><rect x="180" y="250" width="10" height="10"/><rect x="220" y="250" width="10" height="10"/><rect x="240" y="250" width="10" height="10"/><rect x="280" y="250" width="40" height="10"/><rect x="130" y="260" width="10" height="10"/><rect x="150" y="260" width="30" height="10"/><rect x="190" y="260" width="20" height="10"/><rect x="220" y="260" width="30" height="10"/><rect x="260" y="260" width="10" height="10"/><rect x="280" y="260" width="10" height="10"/><rect x="120" y="270" width="20" height="10"/><rect x="170" y="270" width="50" height="10"/><rect x="230" y="270" width="20" height="10"/><rect x="280" y="270" width="20" height="10"/><rect x="160" y="280" width="20" height="10"/><rect x="230" y="280" width="60" height="10"/><rect x="320" y="280" width="10" height="10"/><rect x="130" y="290" width="10" height="10"/><rect x="170" y="290" width="30" height="10"/><rect x="210" y="290" width="40" height="10"/><rect x="270" y="290" width="10" height="10"/><rect x="310" y="290" width="10" height="10"/><rect x="140" y="300" width="10" height="10"/><rect x="170" y="300" width="10" height="10"/><rect x="200" y="300" width="10" height="10"/><rect x="230" y="300" width="60" height="10"/><rect x="310" y="300" width="10" height="10"/><rect x="140" y="310" width="10" height="10"/><rect x="160" y="310" width="20" height="10"/><rect x="220" y="310" width="20" height="10"/><rect x="250" y="310" width="10" height="10"/><rect x="280" y="310" width="30" height="10"/><rect x="320" y="310" width="10" height="10"/><rect x="170" y="320" width="10" height="10"/><rect x="200" y="320" width="10" height="10"/><rect x="230" y="320" width="10" height="10"/><rect x="250" y="320" width="20" height="10"/><rect x="280" y="320" width="10" height="10"/><rect x="300" y="320" width="10" height="10"/></g><path fill="#1a1a1a" fill-rule="evenodd" d="M58 40H92A18 18 0 0 1 110 58V92A18 18 0 0 1 92 110H58A18 18 0 0 1 40 92V58A18 18 0 0 1 58 40ZM60 50H90A10 10 0 0 1 100 60V90A10 10 0 0 1 90 100H60A10 10 0 0 1 50 90V60A10 10 0 0 1 60 50Z"/><path fill="#a83e18" d="M67 60H83A7 7 0 0 1 90 67V83A7 7 0 0 1 83 90H67A7 7 0 0 1 60 83V67A7 7 0 0 1 67 60Z"/><path fill="#1a1a1a" fill-rule="evenodd" d="M278 40H312A18 18 0 0 1 330 58V92A18 18 0 0 1 312 110H278A18 18 0 0 1 260 92V58A18 18 0 0 1 278 40ZM280 50H310A10 10 0 0 1 320 60V90A10 10 0 0 1 310 100H280A10 10 0 0 1 270 90V60A10 10 0 0 1 280 50Z"/><path fill="#a83e18" d="M287 60H303A7 7 0 0 1 310 67V83A7 7 0 0 1 303 90H287A7 7 0 0 1 280 83V67A7 7 0 0 1 287 60Z"/><path fill="#1a1a1a" fill-rule="evenodd" d="M58 260H92A18 18 0 0 1 110 278V312A18 18 0 0 1 92 330H58A18 18 0 0 1 40 312V278A18 18 0 0 1 58 260ZM60 270H90A10 10 0 0 1 100 280V310A10 10 0 0 1 90 320H60A10 10 0 0 1 50 310V280A10 10 0 0 1 60 270Z"/><path fill="#a83e18" d="M67 280H83A7 7 0 0 1 90 287V303A7 7 0 0 1 83 310H67A7 7 0 0 1 60 303V287A7 7 0 0 1 67 280Z"/></svg>